# xmcd
#
# Track frame offsets: 
#        150
#        13550
#        23797
#        32897
#        45107
#        57075
#        68975
#        84052
#        95297
#        106730
#        124957
#        138415
#
# Disc length: 1993 seconds
#
# Revision: 5
# Processed by: cddbd v1.5.1PL2 Copyright (c) Steve Scherf et al.
# Submitted via: ExactAudioCopy v0.95a5
#
DISCID=8a07c70c
DTITLE=Various Artist - Smoky Mountain Hymns
DYEAR=1989
DGENRE=Bluegrass
TTITLE0=Craig Duncan - I'll Fly Away
TTITLE1=Alisa Jones Wall and Ron Wall - Old Time Religion
TTITLE2=Jack Jezioro and David Schnaufer - I Have Decided to Follow Jesu
TTITLE2=s
TTITLE3=Alisa Jones Wall and Ron Wall - Amazing Grace
TTITLE4=Alisa Jones Wall - What a Friend We Have In Jesus
TTITLE5=Craig Duncan - Lily of the Valley
TTITLE6=Craig Duncan and Ron Wall - Unclouded Day
TTITLE7=Alisa Jones Wall and Ron Wall - I Saw the Light
TTITLE8=Craig Duncan  and David Schnaufer - I Am Bound for the Promised 
TTITLE8=Land
TTITLE9=Jack Jezioro - Blessed Assurance
TTITLE10=Craig Duncan - How Great Thou Art
TTITLE11=Craig Duncan - There is a Fountain
EXTD=
EXTT0=
EXTT1=
EXTT2=
EXTT3=
EXTT4=
EXTT5=
EXTT6=
EXTT7=
EXTT8=
EXTT9=
EXTT10=
EXTT11=
PLAYORDER=
